<?xml version="1.0" encoding="utf-8"?>
<!-- Generator: Adobe Illustrator 15.0.0, SVG Export Plug-In . SVG Version: 6.00 Build 0)  -->
<!DOCTYPE svg PUBLIC "-//W3C//DTD SVG 1.1//EN" "http://www.w3.org/Graphics/SVG/1.1/DTD/svg11.dtd">
<svg version="1.1" id="Layer_1" xmlns="http://www.w3.org/2000/svg" xmlns:xlink="http://www.w3.org/1999/xlink" x="0px" y="0px"
	 width="232.464px" height="232.464px" viewBox="203.66 274.856 232.464 232.464"
	 enable-background="new 203.66 274.856 232.464 232.464" xml:space="preserve">
<g id="Layer_1_1_" display="none">
	<g display="inline">
		<g>
			<path fill="#04CB94" d="M308.001,272.89c77.112-6.816,130.209,52.561,126,122c-8.718,143.793-240.409,140.229-230.001-15
				C208.039,319.654,252.056,277.835,308.001,272.89z M302,358.89c-18.471-23.556-54.676-4.334-74,2c-0.979,6.313,3.644,7.023,7,9
				c-34.845,82.598,113.728,74.006,75.001-3c4.94-1.4,12.111-1.396,16,1c-36.643,77.883,107.787,83.432,76,3
				c2.615-1.797,8.188-4.572,5-9c-16.994-7.342-54.523-26.148-75-3C324.409,354.918,309.591,354.918,302,358.89z"/>
			<path d="M332.001,358.89c20.477-23.148,58.006-4.342,75,3c3.188,4.428-2.385,7.203-5,9c31.787,80.432-112.643,74.883-76-3
				c-3.889-2.396-11.06-2.4-16-1c38.727,77.006-109.846,85.598-75.001,3c-3.356-1.977-7.979-2.688-7-9
				c19.324-6.334,55.529-25.556,74-2C309.591,354.918,324.409,354.918,332.001,358.89z M246,368.89
				c-37.794,48.99,65.626,77.791,59,16c-1.592-14.844-15.543-29.533-38-28C257.226,359.033,249.118,364.849,246,368.89z
				 M353.001,420.89c51.882,14.436,57.538-71.213,5-64C324.88,358.392,323.073,414.392,353.001,420.89z"/>
			<path fill="#FFFFFF" d="M388.001,386.89c0.665,0,1.331,0,2,0c4.088,10.865-9.354,26.535-19,27
				C375.994,404.219,386.897,400.455,388.001,386.89z"/>
			<path fill="#FFFFFF" d="M447.001,259.89c0,85.334,0,170.666,0,256c-85.334,0-170.668,0-256.001,0
				c1.333-84.668-2.665-174.665,2-256C277.667,259.89,362.332,259.89,447.001,259.89z M204,379.89
				c-10.408,155.229,221.283,158.793,230.001,15c4.209-69.439-48.888-128.816-126-122C252.056,277.835,208.039,319.654,204,379.89z"
				/>
			<path fill="#B4F0DF" d="M267,356.89c22.457-1.533,36.408,13.156,38,28c6.626,61.791-96.794,32.99-59-16
				C249.118,364.849,257.226,359.033,267,356.89z"/>
			<path fill="#B4F0DF" d="M358.001,356.89c52.538-7.213,46.882,78.436-5,64C323.073,414.392,324.88,358.392,358.001,356.89z
				 M371.001,413.89c9.646-0.465,23.088-16.135,19-27c-0.669,0-1.335,0-2,0C386.897,400.455,375.994,404.219,371.001,413.89z"/>
		</g>
	</g>
</g>
<g id="Layer_2">
	<circle fill="#68D1BF" cx="319.892" cy="391.088" r="116.232"/>
	<circle fill="#FFFFFF" stroke="#000000" stroke-width="9" stroke-miterlimit="10" cx="369.273" cy="385.994" r="42.52"/>
	<circle fill="#FFFFFF" stroke="#000000" stroke-width="9" stroke-miterlimit="10" cx="268.488" cy="385.994" r="42.52"/>
	<polyline fill="#F0F0EA" points="352.14,428.513 411.792,367.445 415.64,385.994 364.109,428.191 	"/>
	<circle fill="none" stroke="#000000" stroke-width="9" stroke-miterlimit="10" cx="268.487" cy="385.994" r="42.52"/>
	<circle fill="none" stroke="#000000" stroke-width="9" stroke-miterlimit="10" cx="369.273" cy="385.994" r="42.52"/>
	<path fill="none" stroke="#000000" stroke-width="9" stroke-miterlimit="10" d="M293.815,351.766c0,0,27.218,12.407,50.479-0.43"/>
	<path fill="none" stroke="#000000" stroke-width="9" stroke-miterlimit="10" d="M397.473,354.246c0,0,13.333,6.634,20.5-2"/>
	<path fill="none" stroke="#000000" stroke-width="9" stroke-miterlimit="10" d="M241.232,353.164c0,0-12.298,3.399-20.582-4.171"/>
</g>
</svg>
